<svg x="0" y="0" width="900" height="700" viewBox="0 0 393.75 306.25" xmlns="http://www.w3.org/2000/svg" xmlns:xlink="http://www.w3.org/1999/xlink" xmlns:fi="http://pattern.flaticon.com/"><rect x="0px" y="0px" width="100%" height="100%" opacity="0" fill="#ffffff"/><defs><g transform="matrix(0.5347784161567688 0 0 0.5347784161567688 72 14.000001907348633)" id="L1_2"><circle cx="56" cy="56" r="56" fill="#3b5998"/><path d="M70.201,58.294h-10.01v36.672H45.025V58.294h-7.213V45.406h7.213v-8.34   c0-5.964,2.833-15.303,15.301-15.303L71.56,21.81v12.51h-8.151c-1.337,0-3.217,0.668-3.217,3.513v7.585h11.334L70.201,58.294z" fill="#ffffff"/></g><g transform="matrix(0.5347784161567688 0 0 0.5347784161567688 72 98.99999237060547)" id="L1_3"><circle cx="56" cy="56" r="56" fill="#007ab9"/><path d="M89.616,60.611v23.128H76.207V62.161c0-5.418-1.936-9.118-6.791-9.118    c-3.705,0-5.906,2.491-6.878,4.903c-0.353,0.862-0.444,2.059-0.444,3.268v22.524H48.684c0,0,0.18-36.546,0-40.329h13.411v5.715    c-0.027,0.045-0.065,0.089-0.089,0.132h0.089v-0.132c1.782-2.742,4.96-6.662,12.085-6.662    C83.002,42.462,89.616,48.226,89.616,60.611L89.616,60.611z M34.656,23.969c-4.587,0-7.588,3.011-7.588,6.967    c0,3.872,2.914,6.97,7.412,6.97h0.087c4.677,0,7.585-3.098,7.585-6.97C42.063,26.98,39.244,23.969,34.656,23.969L34.656,23.969z     M27.865,83.739H41.27V43.409H27.865V83.739z" fill="#ffffff"/></g><g transform="matrix(0.1171875 0 0 0.1171875 71 195)" id="L1_4"><circle cx="256" cy="256" r="256" fill="#7aa5da"/><path d="M511.924,250.077L398.283,136.625l-185.108,225.63l133.284,133.284  C443.197,458.988,512,365.535,512,256C512,254.019,511.969,252.045,511.924,250.077z" fill="#5786b5"/><path d="M383.717,133.52c10.206-3.982,20.756,4.948,18.515,15.67l-45.77,218.781  c-2.138,10.257-14.188,14.877-22.635,8.671l-69.094-50.717l-35.219,35.961c-6.189,6.31-16.86,3.741-19.515-4.672l-25.41-80.662  l-68.112-20.118c-8.947-2.638-9.464-15.084-0.793-18.48L383.717,133.52z M350.118,182.065c2.982-2.638-0.483-7.292-3.862-5.189  l-147.015,91.177c-2.586,1.603-3.775,4.758-2.862,7.671l20.049,88.04c0.397,1.345,2.327,1.155,2.5-0.241l4.482-67.094  c0.172-1.655,0.965-3.172,2.207-4.275L350.118,182.065z" fill="#ffffff"/><path d="M346.257,176.876c3.379-2.103,6.844,2.551,3.862,5.189l-124.5,110.089  c-1.241,1.103-2.034,2.62-2.207,4.275l-4.482,67.094c-0.172,1.396-2.103,1.586-2.5,0.241l-20.049-88.04  c-0.914-2.913,0.276-6.068,2.862-7.671L346.257,176.876z" fill="#9ec2e5"/><path d="M217.154,364.678c-3.241-1.155-5.982-3.741-7.154-7.465l-25.41-80.662l-68.112-20.118  c-8.947-2.638-9.464-15.084-0.793-18.48L383.717,133.52c6.585-2.569,13.326,0.241,16.653,5.448  c-0.621-0.948-1.362-1.827-2.189-2.603L216.343,284.81v6.499l-1-0.724l1,40.926v32.823c0.259,0.121,0.534,0.224,0.81,0.31V364.678  L217.154,364.678z" fill="#ffffff"/><g><path d="M402.525,145.518c0.052,1.172-0.034,2.413-0.293,3.672l-45.77,218.781   c-2.138,10.257-14.188,14.877-22.635,8.671l-69.094-50.717l-48.39-34.616v-6.499l181.838-148.446   c0.827,0.776,1.569,1.655,2.189,2.603c0.121,0.207,0.241,0.396,0.362,0.586c0.103,0.207,0.224,0.414,0.328,0.603   c0.103,0.207,0.207,0.414,0.293,0.621c0.103,0.224,0.19,0.431,0.276,0.655c0.069,0.19,0.155,0.396,0.224,0.621   c0.224,0.672,0.396,1.362,0.517,2.086C402.439,144.587,402.491,145.036,402.525,145.518z" fill="#d1d1d1"/><path d="M264.733,325.925l-35.219,35.961c-0.293,0.293-0.603,0.586-0.914,0.845   c-0.31,0.259-0.621,0.483-0.948,0.707c-0.017,0.017-0.017,0.017-0.017,0.017c-0.655,0.431-1.327,0.793-2.034,1.086   c-0.362,0.138-0.707,0.276-1.069,0.362c-1.5,0.448-3.034,0.569-4.551,0.414c-0.396-0.034-0.793-0.103-1.172-0.172   c-0.052,0-0.103-0.017-0.155-0.034c-0.379-0.103-0.759-0.207-1.138-0.328c-0.121-0.034-0.241-0.069-0.362-0.138l-0.81-33.133   v-40.202L264.733,325.925z" fill="#d1d1d1"/></g><path d="M216.343,331.511l0.81,33.133c-0.276-0.086-0.552-0.19-0.81-0.31V331.511z" fill="#d1d1d1"/><path d="M216.343,291.309 216.343,331.511 215.343,290.585z" fill="#dadde0"/><path d="M350.118,182.065l-124.5,110.089c-1.241,1.103-2.034,2.62-2.207,4.275l-4.474,67.1  c-0.172,1.396-2.103,1.586-2.517,0.241l-20.04-88.045c-0.914-2.913,0.276-6.068,2.862-7.671l147.015-91.177  C349.636,174.773,353.101,179.428,350.118,182.065z" fill="#adbcc9"/></g><g transform="matrix(0.11867517232894897 0 0 0.11867517232894897 180.2082061767578 14.208168029785156)" id="L1_7"><path d="M501.812,481.176c0,6.269-2.09,11.494-6.269,15.673c-4.18,3.135-8.359,5.224-14.629,5.224H21.159  c-5.224,0-10.449-2.09-14.629-5.224c-4.18-4.18-6.269-9.404-6.269-15.673V175.02h501.551V481.176z" fill="#ffd15c"/><path d="M495.543,496.849c-4.18,3.135-8.359,5.224-14.629,5.224H21.159c-5.224,0-10.449-2.09-14.629-5.224  l244.506-210.024L495.543,496.849z" fill="#f8b64c"/><path d="M501.812,175.02l-71.053,51.2L264.62,345.339c-8.359,6.269-19.853,6.269-28.212,0L71.314,226.22  l-71.053-51.2l71.053-51.2L225.959,13.061l11.494-8.359c8.359-6.269,19.853-6.269,28.212,0l11.494,8.359l74.188,53.29l36.571,26.122  l42.841,31.347L501.812,175.02z" fill="#40596b"/><path d="M430.759,77.845V226.22L264.62,345.339c-8.359,6.269-19.853,6.269-28.212,0L71.314,226.22V33.959  c0-11.494,9.404-20.898,20.898-20.898h272.718L430.759,77.845z" fill="#f2f2f2"/><path d="M365.975,61.127c0,9.404,7.314,16.718,16.718,16.718h48.065l-64.784-64.784L365.975,61.127  L365.975,61.127z" fill="#cdd6e0"/><path d="M312.686,223.086h16.718c-5.224,11.494-13.584,19.853-25.078,26.122  c-12.539,7.314-28.212,10.449-47.02,10.449c-17.763,0-33.437-3.135-45.976-9.404c-12.539-6.269-22.988-14.629-29.257-27.167  c-6.269-11.494-9.404-25.078-9.404-38.661c0-15.673,3.135-29.257,10.449-42.841c7.314-13.584,16.718-22.988,29.257-29.257  c12.539-6.269,27.167-9.404,42.841-9.404c13.584,0,26.122,3.135,36.571,8.359c10.449,5.224,18.808,12.539,24.033,22.988  c5.224,9.404,8.359,20.898,8.359,32.392c0,13.584-4.18,26.122-12.539,37.616c-10.449,14.629-24.033,20.898-40.751,20.898  c-4.18,0-8.359-1.045-10.449-2.09c-2.09-2.09-4.18-4.18-4.18-7.314c-6.269,6.269-13.584,9.404-21.943,9.404  c-9.404,0-16.718-3.135-21.943-9.404c-6.269-6.269-9.404-14.629-9.404-25.078c0-12.539,3.135-24.033,10.449-35.527  c8.359-12.539,19.853-18.808,33.437-18.808c9.404,0,16.718,4.18,21.943,11.494l2.09-9.404h21.943l-12.539,58.514  c-1.045,4.18-1.045,6.269-1.045,7.314s0,2.09,1.045,3.135s1.045,1.045,2.09,1.045c2.09,0,6.269-2.09,10.449-5.224  c5.224-4.18,10.449-9.404,13.584-16.718c3.135-7.314,5.224-14.629,5.224-21.943c0-13.584-5.224-25.078-14.629-33.437  c-9.404-9.404-22.988-13.584-40.751-13.584c-14.629,0-27.167,3.135-37.616,9.404c-10.449,6.269-17.763,14.629-22.988,25.078  s-7.314,21.943-7.314,34.482c0,11.494,3.135,21.943,8.359,31.347c6.269,9.404,13.584,16.718,24.033,20.898  c10.449,4.18,21.943,6.269,35.527,6.269c12.539,0,24.033-2.09,33.437-5.224C299.102,235.624,306.416,230.4,312.686,223.086z   M223.869,189.649c0,7.314,1.045,11.494,4.18,15.673c3.135,3.135,6.269,5.224,10.449,5.224c3.135,0,6.269-1.045,8.359-2.09  c2.09-1.045,4.18-3.135,6.269-5.224c3.135-3.135,5.225-8.359,7.314-14.629c2.09-6.269,3.135-12.539,3.135-17.763  c0-6.269-1.045-10.449-4.18-14.629c-3.135-3.135-6.269-5.224-10.449-5.224c-4.18,0-9.404,2.09-12.539,5.224  c-4.18,3.135-7.314,8.359-9.404,15.673C224.914,178.155,223.869,184.424,223.869,189.649z" fill="#ff7058"/></g><g transform="matrix(0.1171875 0 0 0.1171875 178 98)" id="L1_9"><circle cx="256" cy="256" r="256" fill="#3a99d7"/><path d="M509.363,293.09L397.435,181.162L123.796,355.235l155.776,155.776  C397.6,500.132,492.549,409.304,509.363,293.09z" fill="#2682bf"/><rect x="123px" y="181px" width="273px" height="174px" fill="#f7c600"/><path d="M123.797,181.162h273.639l-136.82-84.235L123.797,181.162z" fill="#ffd630"/><path d="M162.865,149.841h195.667c10.221,0,18.462,8.242,18.462,18.462v186.931H144.401V168.304  C144.401,158.084,152.644,149.841,162.865,149.841z" fill="#ffffff"/><path d="M123.797,181.162l133.851,87.037l-133.851,87.037L123.797,181.162L123.797,181.162z" fill="#ffd630"/><path d="M123.797,355.235h273.639l-136.819-87.202L123.797,355.235z" fill="#f5be18"/><path d="M397.435,181.162l-133.852,87.037l133.852,87.037V181.162z" fill="#ffd630"/><path d="M194.514,172.095h132.368v10.879H194.514V172.095z M194.514,210.009h132.368v10.879H194.514V210.009z   M194.514,191.052h132.368v10.879H194.514V191.052z" fill="#999999"/></g><g transform="matrix(0.453125 0 0 0.453125 287 100)" id="L1_11"><circle cx="64" cy="64" r="64" fill="#34b9f5"/><g><path d="M86.216,97.252c0,2.99-2.424,5.415-5.415,5.415h-34.17c-2.99,0-5.415-2.424-5.415-5.415V34.081    c0-2.99,2.424-5.415,5.415-5.415h34.171c2.99,0,5.415,2.424,5.415,5.415v63.171H86.216z" fill="#fffeff"/><path d="M82.216,88.667 82.216,88.667 46.216,88.667 46.216,88.667 46.216,38.667 46.216,38.667     82.216,38.667 82.216,38.667z" fill="#486380"/><path d="M67.216,95.667c0,2.209-1.791,4-4,4l0,0c-2.209,0-4-1.791-4-4l0,0c0-2.209,1.791-4,4-4l0,0    C65.425,91.667,67.216,93.458,67.216,95.667L67.216,95.667z" fill="#34495e"/><path d="M73.216,35.313c0,0.748-0.606,1.354-1.354,1.354H56.57c-0.748,0-1.354-0.606-1.354-1.354V35.02    c0-0.748,0.606-1.354,1.354-1.354h15.293c0.748,0,1.354,0.606,1.354,1.354L73.216,35.313L73.216,35.313z" fill="#34495e"/><path d="M46.248,88.667 82.248,88.667 82.248,38.667 82.209,38.667 46.248,88.75z" fill="#49708b"/></g></g><g transform="matrix(0.11328125 0 0 0.11328125 286 14)" id="L1_12"><path d="M512,256.006C512,397.402,397.394,512.004,256.004,512C114.606,512.004,0,397.402,0,256.006  C-0.007,114.61,114.606,0,256.004,0C397.394,0,512,114.614,512,256.006z" fill="#4fc0e8"/><path d="M473.781,390.562c-0.11-0.106-0.206-0.226-0.323-0.323c-0.547-0.515-53.565-53.667-54.142-54.143  c-0.548-0.514-1.017-1.116-1.593-1.594c-0.547-0.513-246.242-246.344-246.816-246.818c-6.059-5.699-13.854-9.286-22.261-9.809  c-10.294-0.689-20.354,3.175-27.641,10.478L90.627,118.8c-13.011,13.038-44.549,66.527,95.883,207.261  c0.263,0.265,166.119,166.103,166.382,166.366c0.133,0.133,0.26,0.264,0.387,0.395C403.415,472.208,445.552,436.159,473.781,390.562  z" fill="#3daed9"/><path d="M434.205,364.028c-0.642-10.289-5.666-19.824-13.785-26.155l-47.558-37.095  c-13.095-10.224-31.334-10.151-44.35,0.16l-10.576,8.374c-8.374,6.642-20.404,5.938-27.959-1.638l-85.068-85.249  c-7.566-7.584-8.27-19.65-1.635-28.068l8.356-10.594c10.274-13.044,10.34-31.302,0.16-44.404l-37.016-47.661  c-6.323-8.143-15.846-13.182-26.129-13.821c-10.292-0.689-20.353,3.175-27.641,10.478l-30.378,30.447  c-13.012,13.037-44.549,66.527,95.883,207.261c89.19,89.382,143.492,108.141,173.341,108.141c17.776,0,28.043-6.555,33.529-12.051  l30.378-30.439C431.036,384.41,434.843,374.324,434.205,364.028z M413.243,381.227l-30.378,30.439  c-3.499,3.502-10.333,7.686-23.014,7.686c-22.138,0-72.723-13.479-162.827-103.775C93.038,211.367,80.382,150.097,101.141,129.286  l30.378-30.447c3.963-3.966,9.332-6.185,14.9-6.185c0.435,0,0.87,0.015,1.306,0.044c6.026,0.37,11.609,3.328,15.322,8.107  l37.02,47.661c5.982,7.7,5.942,18.439-0.098,26.103l-8.353,10.594c-11.286,14.321-10.09,34.848,2.781,47.747l85.068,85.249  c12.881,12.914,33.383,14.11,47.69,2.799l10.579-8.374c7.625-6.054,18.316-6.083,25.998-0.101l47.555,37.095  c4.771,3.719,7.723,9.325,8.099,15.372C419.761,371.003,417.52,376.934,413.243,381.227z" fill="#f6f6f6"/></g><g transform="matrix(0.11811023950576782 0 0 0.11811023950576782 178 192)" id="L1_17"><circle cx="254" cy="254" r="254" fill="#324a5e"/><path d="M98.8,195.6v205.2c0,13.2,10.8,23.6,23.6,23.6h263.2c13.2,0,23.6-10.8,23.6-23.6V195.6H98.8z" fill="#ffd05b"/><path d="M409.2,195.6 254,332.4 98.8,195.6 254,83.6z" fill="#f9b54c"/><path d="M382,106.4 382,219.2 254,332.4 126,219.2 126,106.4z" fill="#ffffff"/><path d="M402.4,416.4c-4.4,5.2-10.4,8.4-16.8,8.4H122.4c-6.4,0-12.4-3.2-16.8-8.4l122-107.2l26.4,23.2  l26.4-23.2L402.4,416.4z" fill="#f9b54c"/><path d="M402.4,417.6c-4.4,4.4-10.4,6.8-16.8,6.8H122.4c-6.4,0-12.4-2.8-16.8-6.8L236.4,314  c10.4-8,24.8-8,35.2,0L402.4,417.6z" fill="#ffd05b"/><g><rect x="154px" y="131px" width="198px" height="12px" fill="#e6e9ee"/><rect x="154px" y="162px" width="198px" height="12px" fill="#e6e9ee"/><rect x="154px" y="194px" width="198px" height="12px" fill="#e6e9ee"/></g></g></defs><g fi:class="KUsePattern"><pattern id="pattern_L1_2" width="350" height="350" patternUnits="userSpaceOnUse"><use xlink:href="#L1_2" x="-350" y="-350"/><use xlink:href="#L1_2" x="0" y="-350"/><use xlink:href="#L1_2" x="350" y="-350"/><use xlink:href="#L1_2" x="-350" y="0"/><use xlink:href="#L1_2" x="0" y="0"/><use xlink:href="#L1_2" x="350" y="0"/><use xlink:href="#L1_2" x="-350" y="350"/><use xlink:href="#L1_2" x="0" y="350"/><use xlink:href="#L1_2" x="350" y="350"/></pattern><rect x="0" y="0" width="100%" height="100%" fill="url(#pattern_L1_2)"/></g><g fi:class="KUsePattern"><pattern id="pattern_L1_3" width="350" height="350" patternUnits="userSpaceOnUse"><use xlink:href="#L1_3" x="-350" y="-350"/><use xlink:href="#L1_3" x="0" y="-350"/><use xlink:href="#L1_3" x="350" y="-350"/><use xlink:href="#L1_3" x="-350" y="0"/><use xlink:href="#L1_3" x="0" y="0"/><use xlink:href="#L1_3" x="350" y="0"/><use xlink:href="#L1_3" x="-350" y="350"/><use xlink:href="#L1_3" x="0" y="350"/><use xlink:href="#L1_3" x="350" y="350"/></pattern><rect x="0" y="0" width="100%" height="100%" fill="url(#pattern_L1_3)"/></g><g fi:class="KUsePattern"><pattern id="pattern_L1_4" width="350" height="350" patternUnits="userSpaceOnUse"><use xlink:href="#L1_4" x="-350" y="-350"/><use xlink:href="#L1_4" x="0" y="-350"/><use xlink:href="#L1_4" x="350" y="-350"/><use xlink:href="#L1_4" x="-350" y="0"/><use xlink:href="#L1_4" x="0" y="0"/><use xlink:href="#L1_4" x="350" y="0"/><use xlink:href="#L1_4" x="-350" y="350"/><use xlink:href="#L1_4" x="0" y="350"/><use xlink:href="#L1_4" x="350" y="350"/></pattern><rect x="0" y="0" width="100%" height="100%" fill="url(#pattern_L1_4)"/></g><g fi:class="KUsePattern"><pattern id="pattern_L1_7" width="350" height="350" patternUnits="userSpaceOnUse"><use xlink:href="#L1_7" x="-350" y="-350"/><use xlink:href="#L1_7" x="0" y="-350"/><use xlink:href="#L1_7" x="350" y="-350"/><use xlink:href="#L1_7" x="-350" y="0"/><use xlink:href="#L1_7" x="0" y="0"/><use xlink:href="#L1_7" x="350" y="0"/><use xlink:href="#L1_7" x="-350" y="350"/><use xlink:href="#L1_7" x="0" y="350"/><use xlink:href="#L1_7" x="350" y="350"/></pattern><rect x="0" y="0" width="100%" height="100%" fill="url(#pattern_L1_7)"/></g><g fi:class="KUsePattern"><pattern id="pattern_L1_9" width="350" height="350" patternUnits="userSpaceOnUse"><use xlink:href="#L1_9" x="-350" y="-350"/><use xlink:href="#L1_9" x="0" y="-350"/><use xlink:href="#L1_9" x="350" y="-350"/><use xlink:href="#L1_9" x="-350" y="0"/><use xlink:href="#L1_9" x="0" y="0"/><use xlink:href="#L1_9" x="350" y="0"/><use xlink:href="#L1_9" x="-350" y="350"/><use xlink:href="#L1_9" x="0" y="350"/><use xlink:href="#L1_9" x="350" y="350"/></pattern><rect x="0" y="0" width="100%" height="100%" fill="url(#pattern_L1_9)"/></g><g fi:class="KUsePattern"><pattern id="pattern_L1_11" width="350" height="350" patternUnits="userSpaceOnUse"><use xlink:href="#L1_11" x="-350" y="-350"/><use xlink:href="#L1_11" x="0" y="-350"/><use xlink:href="#L1_11" x="350" y="-350"/><use xlink:href="#L1_11" x="-350" y="0"/><use xlink:href="#L1_11" x="0" y="0"/><use xlink:href="#L1_11" x="350" y="0"/><use xlink:href="#L1_11" x="-350" y="350"/><use xlink:href="#L1_11" x="0" y="350"/><use xlink:href="#L1_11" x="350" y="350"/></pattern><rect x="0" y="0" width="100%" height="100%" fill="url(#pattern_L1_11)"/></g><g fi:class="KUsePattern"><pattern id="pattern_L1_12" width="350" height="350" patternUnits="userSpaceOnUse"><use xlink:href="#L1_12" x="-350" y="-350"/><use xlink:href="#L1_12" x="0" y="-350"/><use xlink:href="#L1_12" x="350" y="-350"/><use xlink:href="#L1_12" x="-350" y="0"/><use xlink:href="#L1_12" x="0" y="0"/><use xlink:href="#L1_12" x="350" y="0"/><use xlink:href="#L1_12" x="-350" y="350"/><use xlink:href="#L1_12" x="0" y="350"/><use xlink:href="#L1_12" x="350" y="350"/></pattern><rect x="0" y="0" width="100%" height="100%" fill="url(#pattern_L1_12)"/></g><g fi:class="KUsePattern"><pattern id="pattern_L1_17" width="350" height="350" patternUnits="userSpaceOnUse"><use xlink:href="#L1_17" x="-350" y="-350"/><use xlink:href="#L1_17" x="0" y="-350"/><use xlink:href="#L1_17" x="350" y="-350"/><use xlink:href="#L1_17" x="-350" y="0"/><use xlink:href="#L1_17" x="0" y="0"/><use xlink:href="#L1_17" x="350" y="0"/><use xlink:href="#L1_17" x="-350" y="350"/><use xlink:href="#L1_17" x="0" y="350"/><use xlink:href="#L1_17" x="350" y="350"/></pattern><rect x="0" y="0" width="100%" height="100%" fill="url(#pattern_L1_17)"/></g></svg>