<svg x="0" y="0" width="250" height="351" viewBox="0 0 250 351" xmlns="http://www.w3.org/2000/svg" xmlns:xlink="http://www.w3.org/1999/xlink" xmlns:fi="http://pattern.flaticon.com/"><rect x="0px" y="0px" width="100%" height="100%" opacity="0" fill="#0070b5"/><defs><path d="M577.83,456.128c1.225,9.385-1.635,17.545-8.568,24.48l-81.396,80.781    c-3.672,4.08-8.465,7.551-14.381,10.404c-5.916,2.857-11.729,4.693-17.439,5.508c-0.408,0-1.635,0.105-3.676,0.309    c-2.037,0.203-4.689,0.307-7.953,0.307c-7.754,0-20.301-1.326-37.641-3.979s-38.555-9.182-63.645-19.584    c-25.096-10.404-53.553-26.012-85.376-46.818c-31.823-20.805-65.688-49.367-101.592-85.68    c-28.56-28.152-52.224-55.08-70.992-80.783c-18.768-25.705-33.864-49.471-45.288-71.299    c-11.425-21.828-19.993-41.616-25.705-59.364S4.59,177.362,2.55,164.51s-2.856-22.95-2.448-30.294    c0.408-7.344,0.612-11.424,0.612-12.24c0.816-5.712,2.652-11.526,5.508-17.442s6.324-10.71,10.404-14.382L98.022,8.756    c5.712-5.712,12.24-8.568,19.584-8.568c5.304,0,9.996,1.53,14.076,4.59s7.548,6.834,10.404,11.322l65.484,124.236    c3.672,6.528,4.692,13.668,3.06,21.42c-1.632,7.752-5.1,14.28-10.404,19.584l-29.988,29.988c-0.816,0.816-1.53,2.142-2.142,3.978    s-0.918,3.366-0.918,4.59c1.632,8.568,5.304,18.36,11.016,29.376c4.896,9.792,12.444,21.726,22.644,35.802    s24.684,30.293,43.452,48.653c18.36,18.77,34.68,33.354,48.96,43.76c14.277,10.4,26.215,18.053,35.803,22.949    c9.588,4.896,16.932,7.854,22.031,8.871l7.648,1.531c0.816,0,2.145-0.307,3.979-0.918c1.836-0.613,3.162-1.326,3.979-2.143    l34.883-35.496c7.348-6.527,15.912-9.791,25.705-9.791c6.938,0,12.443,1.223,16.523,3.672h0.611l118.115,69.768    C571.098,441.238,576.197,447.968,577.83,456.128z" transform="matrix(0.05878640338778496 0 0 0.05878640338778496 116.0052490234375 70.00763702392578)" fill="#003454" id="L1_4"/><g transform="matrix(0.5141780972480774 0 0 0.5141780972480774 112.9859390258789 19.973798751831055)" id="L1_5"><path d="M65.094,32.195h-6.982h-0.934c-2.064,0-3.738,1.674-3.738,3.745v0.406c0,2.073,1.674,3.748,3.741,3.748h6.989h0.924    c2.068,0,3.747-1.682,3.747-3.748l-0.004-0.411C68.841,33.869,67.162,32.195,65.094,32.195z" fill="#003454"/><path d="M65.098,22.852h-1.649V4.734c0-2.604-2.13-4.734-4.735-4.734H27.475c-2.604,0-4.734,2.131-4.734,4.734v12.999    c-6.301,3.562-12.8,7.283-12.814,7.292C6.399,26.477,1.23,31.162,1.23,42.225c0,0.988,0.065,1.9,0.156,2.781    c0.029,0.258,0.061,0.506,0.096,0.755c0.091,0.647,0.205,1.266,0.341,1.854c0.049,0.21,0.087,0.429,0.14,0.63    c0.183,0.68,0.395,1.318,0.633,1.925c0.12,0.301,0.25,0.575,0.381,0.857c0.14,0.297,0.281,0.589,0.432,0.862    c0.175,0.329,0.35,0.646,0.542,0.947c0.046,0.07,0.096,0.134,0.143,0.205c4.556,6.887,12.961,6.918,12.961,6.918h5.686v5.379    c0,2.601,2.13,4.731,4.734,4.731h31.238c2.605,0,4.735-2.131,4.735-4.731v-6.561h0.722v-0.004h0.921    c2.071,0,3.75-1.675,3.746-3.746l0.004-0.408c-0.004-2.068-1.679-3.738-3.747-3.738H64.17h-6.059h-0.934    c-2.068,0-3.738,1.674-3.738,3.741v0.415c0,2.062,1.674,3.743,3.741,3.743h2.974v2.534h-34.12V27.323    c1.714-1.087,3.301-2.133,4.206-2.834c4.585-3.546,8.937-6.37,9.526-8.931c0.767-3.323-1.784-6.123-6.209-3.824    c-1.394,0.724-4.255,2.311-7.523,4.146V7.502l34.12,0.005V22.85h-2.043v0.004h-0.929c-2.069,0-3.748,1.674-3.748,3.747v0.406    c0,2.072,1.679,3.742,3.743,3.742h0.929h6.059h0.931c2.066,0,3.741-1.674,3.741-3.742V26.59    C68.841,24.531,67.167,22.852,65.098,22.852z M43.09,62.976c1.312,0,2.37,1.059,2.37,2.368c0,1.312-1.059,2.367-2.37,2.367    c-1.307,0-2.363-1.058-2.363-2.367C40.729,64.039,41.788,62.976,43.09,62.976z M48.093,4.558h-9.996    c-0.314,0-0.574-0.255-0.574-0.57c0-0.32,0.26-0.575,0.574-0.575h9.996c0.314,0,0.57,0.254,0.57,0.575    C48.663,4.302,48.407,4.558,48.093,4.558z" fill="#003454"/><path d="M65.094,41.538H64.17h-6.992c-2.064,0-3.743,1.679-3.743,3.746v0.41c0,2.069,1.675,3.743,3.743,3.743h0.929h6.059h0.926    c2.071,0,3.741-1.674,3.746-3.743v-0.41C68.837,43.217,67.167,41.538,65.094,41.538z" fill="#003454"/></g><path d="M332.797,13.699c-1.489-1.306-3.608-1.609-5.404-0.776L2.893,163.695c-1.747,0.812-2.872,2.555-2.893,4.481  s1.067,3.693,2.797,4.542l91.833,45.068c1.684,0.827,3.692,0.64,5.196-0.484l89.287-66.734l-70.094,72.1  c-1,1.029-1.51,2.438-1.4,3.868l6.979,90.889c0.155,2.014,1.505,3.736,3.424,4.367c0.513,0.168,1.04,0.25,1.561,0.25  c1.429,0,2.819-0.613,3.786-1.733l48.742-56.482l60.255,28.79c1.308,0.625,2.822,0.651,4.151,0.073  c1.329-0.579,2.341-1.705,2.775-3.087L334.27,18.956C334.864,17.066,334.285,15.005,332.797,13.699z" transform="matrix(0.11445725709199905 0 0 0.11445725709199905 115.84080505371094 268.8450622558594)" id="L1_9" fill="#003454"/><path d="M72.089,0.02L59.624,0C45.62,0,36.57,9.285,36.57,23.656v10.907H24.037c-1.083,0-1.96,0.878-1.96,1.961v15.803   c0,1.083,0.878,1.96,1.96,1.96h12.533v39.876c0,1.083,0.877,1.96,1.96,1.96h16.352c1.083,0,1.96-0.878,1.96-1.96V54.287h14.654   c1.083,0,1.96-0.877,1.96-1.96l0.006-15.803c0-0.52-0.207-1.018-0.574-1.386c-0.367-0.368-0.867-0.575-1.387-0.575H56.842v-9.246   c0-4.444,1.059-6.7,6.848-6.7l8.397-0.003c1.082,0,1.959-0.878,1.959-1.96V1.98C74.046,0.899,73.17,0.022,72.089,0.02z" transform="matrix(0.4030633270740509 0 0 0.4030633270740509 114.62782287597656 118.61425018310547)" id="L1_10" fill="#003454"/><path d="M430.117,261.543V420.56h-92.188V272.193c0-37.271-13.334-62.707-46.703-62.707   c-25.473,0-40.632,17.142-47.301,33.724c-2.432,5.928-3.058,14.179-3.058,22.477V420.56h-92.219c0,0,1.242-251.285,0-277.32h92.21   v39.309c-0.187,0.294-0.43,0.611-0.606,0.896h0.606v-0.896c12.251-18.869,34.13-45.824,83.102-45.824   C384.633,136.724,430.117,176.361,430.117,261.543z M52.183,9.558C20.635,9.558,0,30.251,0,57.463   c0,26.619,20.038,47.94,50.959,47.94h0.616c32.159,0,52.159-21.317,52.159-47.94C103.128,30.251,83.734,9.558,52.183,9.558z    M5.477,420.56h92.184v-277.32H5.477V420.56z" transform="matrix(0.08432619273662567 0 0 0.08432619273662567 115.86170196533203 167.86492919921875)" id="L1_12" fill="#003454"/><g transform="matrix(2.6837852001190186 0 0 2.6837852001190186 114.2135009765625 220.21351623535156)" id="L1_13"><path d="M7,9L5.268,7.484l-4.952,4.245C0.496,11.896,0.739,12,1.007,12h11.986    c0.267,0,0.509-0.104,0.688-0.271L8.732,7.484L7,9z" fill="#003454"/><path d="M13.684,2.271C13.504,2.103,13.262,2,12.993,2H1.007C0.74,2,0.498,2.104,0.318,2.273L7,8    L13.684,2.271z" fill="#003454"/><path d="M0,2.878 0,11.186 4.833,7.079z" fill="#003454"/><path d="M9.167,7.079 14,11.186 14,2.875z" fill="#003454"/></g></defs><g fi:class="KUsePattern"><pattern id="pattern_L1_4" width="350" height="350" patternUnits="userSpaceOnUse"><use xlink:href="#L1_4" x="-350" y="-350"/><use xlink:href="#L1_4" x="0" y="-350"/><use xlink:href="#L1_4" x="350" y="-350"/><use xlink:href="#L1_4" x="-350" y="0"/><use xlink:href="#L1_4" x="0" y="0"/><use xlink:href="#L1_4" x="350" y="0"/><use xlink:href="#L1_4" x="-350" y="350"/><use xlink:href="#L1_4" x="0" y="350"/><use xlink:href="#L1_4" x="350" y="350"/></pattern><rect x="0" y="0" width="100%" height="100%" fill="url(#pattern_L1_4)"/></g><g fi:class="KUsePattern"><pattern id="pattern_L1_5" width="350" height="350" patternUnits="userSpaceOnUse"><use xlink:href="#L1_5" x="-350" y="-350"/><use xlink:href="#L1_5" x="0" y="-350"/><use xlink:href="#L1_5" x="350" y="-350"/><use xlink:href="#L1_5" x="-350" y="0"/><use xlink:href="#L1_5" x="0" y="0"/><use xlink:href="#L1_5" x="350" y="0"/><use xlink:href="#L1_5" x="-350" y="350"/><use xlink:href="#L1_5" x="0" y="350"/><use xlink:href="#L1_5" x="350" y="350"/></pattern><rect x="0" y="0" width="100%" height="100%" fill="url(#pattern_L1_5)"/></g><g fi:class="KUsePattern"><pattern id="pattern_L1_9" width="350" height="350" patternUnits="userSpaceOnUse"><use xlink:href="#L1_9" x="-350" y="-350"/><use xlink:href="#L1_9" x="0" y="-350"/><use xlink:href="#L1_9" x="350" y="-350"/><use xlink:href="#L1_9" x="-350" y="0"/><use xlink:href="#L1_9" x="0" y="0"/><use xlink:href="#L1_9" x="350" y="0"/><use xlink:href="#L1_9" x="-350" y="350"/><use xlink:href="#L1_9" x="0" y="350"/><use xlink:href="#L1_9" x="350" y="350"/></pattern><rect x="0" y="0" width="100%" height="100%" fill="url(#pattern_L1_9)"/></g><g fi:class="KUsePattern"><pattern id="pattern_L1_10" width="350" height="350" patternUnits="userSpaceOnUse"><use xlink:href="#L1_10" x="-350" y="-350"/><use xlink:href="#L1_10" x="0" y="-350"/><use xlink:href="#L1_10" x="350" y="-350"/><use xlink:href="#L1_10" x="-350" y="0"/><use xlink:href="#L1_10" x="0" y="0"/><use xlink:href="#L1_10" x="350" y="0"/><use xlink:href="#L1_10" x="-350" y="350"/><use xlink:href="#L1_10" x="0" y="350"/><use xlink:href="#L1_10" x="350" y="350"/></pattern><rect x="0" y="0" width="100%" height="100%" fill="url(#pattern_L1_10)"/></g><g fi:class="KUsePattern"><pattern id="pattern_L1_12" width="350" height="350" patternUnits="userSpaceOnUse"><use xlink:href="#L1_12" x="-350" y="-350"/><use xlink:href="#L1_12" x="0" y="-350"/><use xlink:href="#L1_12" x="350" y="-350"/><use xlink:href="#L1_12" x="-350" y="0"/><use xlink:href="#L1_12" x="0" y="0"/><use xlink:href="#L1_12" x="350" y="0"/><use xlink:href="#L1_12" x="-350" y="350"/><use xlink:href="#L1_12" x="0" y="350"/><use xlink:href="#L1_12" x="350" y="350"/></pattern><rect x="0" y="0" width="100%" height="100%" fill="url(#pattern_L1_12)"/></g><g fi:class="KUsePattern"><pattern id="pattern_L1_13" width="350" height="350" patternUnits="userSpaceOnUse"><use xlink:href="#L1_13" x="-350" y="-350"/><use xlink:href="#L1_13" x="0" y="-350"/><use xlink:href="#L1_13" x="350" y="-350"/><use xlink:href="#L1_13" x="-350" y="0"/><use xlink:href="#L1_13" x="0" y="0"/><use xlink:href="#L1_13" x="350" y="0"/><use xlink:href="#L1_13" x="-350" y="350"/><use xlink:href="#L1_13" x="0" y="350"/><use xlink:href="#L1_13" x="350" y="350"/></pattern><rect x="0" y="0" width="100%" height="100%" fill="url(#pattern_L1_13)"/></g></svg>