<svg x="0" y="0" width="400" height="300" viewBox="0 0 400 300" xmlns="http://www.w3.org/2000/svg" xmlns:xlink="http://www.w3.org/1999/xlink" xmlns:fi="http://pattern.flaticon.com/"><rect x="0px" y="0px" width="100%" height="100%" opacity="0" fill="#425370"/><defs><path d="M311.175,115.775c-1.355-10.186-1.546-27.73,7.915-33.621c0.169-0.108,0.295-0.264,0.443-0.398    c7.735-2.474,13.088-5.946,8.886-10.618l-114.102-34.38L29.56,62.445c0,0-21.157,3.024-19.267,35.894    c1.026,17.89,6.637,26.676,11.544,31l-15.161,4.569c-4.208,4.672,1.144,8.145,8.88,10.615c0.147,0.138,0.271,0.293,0.443,0.401    c9.455,5.896,9.273,23.438,7.913,33.626c-33.967,9.645-21.774,12.788-21.774,12.788l7.451,1.803    c-5.241,4.736-10.446,13.717-9.471,30.75c1.891,32.864,19.269,35.132,19.269,35.132l120.904,39.298l182.49-44.202    c0,0,12.197-3.148-21.779-12.794c-1.366-10.172-1.556-27.712,7.921-33.623c0.174-0.105,0.301-0.264,0.442-0.396    c7.736-2.474,13.084-5.943,8.881-10.615l-7.932-2.395c5.29-3.19,13.236-11.527,14.481-33.183    c0.859-14.896-3.027-23.62-7.525-28.756l15.678-3.794C332.949,128.569,345.146,125.421,311.175,115.775z M158.533,115.354    l30.688-6.307l103.708-21.312l15.451-3.178c-4.937,9.036-4.73,21.402-3.913,29.35c0.179,1.798,0.385,3.44,0.585,4.688    L288.14,122.8l-130.897,32.563L158.533,115.354z M26.71,147.337l15.449,3.178l99.597,20.474l8.701,1.782l0,0l0,0l26.093,5.363    l1.287,40.01L43.303,184.673l-13.263-3.296c0.195-1.25,0.401-2.89,0.588-4.693C31.44,168.742,31.651,156.373,26.71,147.337z     M20.708,96.757c-0.187-8.743,1.371-15.066,4.52-18.28c2.004-2.052,4.369-2.479,5.991-2.479c0.857,0,1.474,0.119,1.516,0.119    l79.607,25.953l39.717,12.949l-1.303,40.289L39.334,124.07l-5.88-1.647c-0.216-0.061-0.509-0.103-0.735-0.113    C32.26,122.277,21.244,121.263,20.708,96.757z M140.579,280.866L23.28,247.98c-0.217-0.063-0.507-0.105-0.733-0.116    c-0.467-0.031-11.488-1.044-12.021-25.544c-0.19-8.754,1.376-15.071,4.519-18.288c2.009-2.052,4.375-2.479,5.994-2.479    c0.859,0,1.474,0.115,1.519,0.115c0,0,0.005,0,0,0l119.316,38.908L140.579,280.866z M294.284,239.459    c0.185,1.804,0.391,3.443,0.591,4.693l-147.812,36.771l1.292-40.01l31.601-6.497l4.667,1.129l17.492-5.685l80.631-16.569    l15.457-3.18C293.261,219.146,293.466,231.517,294.284,239.459z M302.426,185.084c-0.269,0.006-0.538,0.042-0.791,0.122    l-11.148,3.121l-106.148,29.764l-1.298-40.289l34.826-11.359l84.327-27.501c0.011-0.005,4.436-0.988,7.684,2.315    c3.144,3.214,4.704,9.537,4.52,18.28C313.848,184.035,302.827,185.053,302.426,185.084z" transform="matrix(0.17906171083450317 0 0 0.17906171083450317 108.00000762939453 16.999998092651367)" id="L1_0" fill="#ffffff"/><g transform="matrix(1.9068200588226318 0 0 1.9068200588226318 108 99.00000762939453)" id="L1_1"><path d="M30.221,7.011V5.029l-0.285-0.112c-0.1-0.039-2.429-0.943-5.535-0.943c-3.328,0-6.194,1.014-8.527,3.014    c-2.332-2-5.199-3.014-8.527-3.014c-3.107,0-5.436,0.904-5.533,0.943L1.526,5.029v1.836C0.586,7.041,0,7.356,0,7.87    c0,2.676,0,18.918,0,18.918h13.934c0.482,0.431,1.187,0.703,1.975,0.703c0.789,0,1.493-0.272,1.975-0.703h13.582    c0,0,0-17.979,0-18.918C31.465,7.452,30.99,7.179,30.221,7.011z M15.723,25.296c-1.156-0.479-5.14-1.992-9.13-1.992    c-1.577,0-2.974,0.242-4.163,0.72V5.655c0.694-0.232,2.586-0.779,4.916-0.779c3.064,0,5.697,0.927,7.847,2.733v10.965l0.53-0.584    V25.296z M29.316,24.029c-1.277-0.514-2.744-0.772-4.369-0.772c-3.988,0-7.783,1.528-8.926,2.03v-7.299l0.533,0.586V7.609    c2.149-1.807,4.782-2.733,7.846-2.733c2.322,0,4.221,0.548,4.916,0.779V24.029z" fill="#ffffff"/><path d="M4.217,8.071l0.187,0.707c4.705-1.248,8.938,1.062,8.981,1.085l0.355-0.639C13.559,9.123,9.212,6.747,4.217,8.071z" fill="#ffffff"/><path d="M4.217,10.141l0.187,0.707c4.705-1.249,8.938,1.061,8.981,1.084l0.355-0.638C13.559,11.192,9.212,8.817,4.217,10.141z" fill="#ffffff"/><path d="M4.217,12.086l0.187,0.707c4.705-1.247,8.938,1.062,8.981,1.085l0.355-0.639C13.559,13.138,9.212,10.763,4.217,12.086z" fill="#ffffff"/><path d="M4.217,14.218l0.187,0.707c4.705-1.248,8.938,1.062,8.981,1.085l0.355-0.638C13.559,15.269,9.212,12.893,4.217,14.218z" fill="#ffffff"/><path d="M4.217,16.193L4.404,16.9c4.705-1.247,8.938,1.062,8.981,1.086l0.355-0.64C13.559,17.246,9.212,14.87,4.217,16.193z" fill="#ffffff"/><path d="M4.217,18.222l0.187,0.707c4.705-1.248,8.938,1.061,8.981,1.084l0.355-0.639C13.559,19.273,9.212,16.899,4.217,18.222z" fill="#ffffff"/><path d="M4.217,20.257l0.187,0.706c4.705-1.248,8.938,1.062,8.981,1.085l0.355-0.637C13.559,21.308,9.212,18.932,4.217,20.257z" fill="#ffffff"/><path d="M18.578,9.917c0.043-0.023,4.275-2.332,8.98-1.085l0.188-0.707c-4.996-1.323-9.342,1.053-9.523,1.154L18.578,9.917z" fill="#ffffff"/><path d="M18.223,11.349l0.355,0.638c0.043-0.023,4.275-2.333,8.98-1.084l0.188-0.708C22.75,8.871,18.404,11.246,18.223,11.349z" fill="#ffffff"/><path d="M18.223,13.293l0.355,0.639c0.043-0.024,4.275-2.333,8.98-1.086l0.188-0.707C22.75,10.817,18.404,13.192,18.223,13.293z" fill="#ffffff"/><path d="M18.223,15.426l0.355,0.638c0.043-0.023,4.275-2.332,8.98-1.084l0.188-0.707C22.75,12.947,18.404,15.323,18.223,15.426z" fill="#ffffff"/><path d="M18.223,17.401l0.355,0.64c0.043-0.023,4.275-2.333,8.98-1.086l0.188-0.707C22.75,14.925,18.404,17.299,18.223,17.401z" fill="#ffffff"/><path d="M18.223,19.43l0.355,0.638c0.043-0.023,4.275-2.332,8.98-1.084l0.188-0.707C22.75,16.953,18.404,19.328,18.223,19.43z" fill="#ffffff"/><path d="M18.223,21.464l0.355,0.637c0.043-0.021,4.275-2.333,8.98-1.084l0.188-0.707C22.75,18.986,18.404,21.363,18.223,21.464z" fill="#ffffff"/></g><g transform="matrix(0.14527985453605652 0 0 0.14527985453605652 107.99999237060547 186)" id="L1_2"><path d="M392.996,28.338H20c-11.047,0-20,8.954-20,20v234c0,11.046,8.953,20,20,20h139.498v45.32h-54.283     c-10.201,0-18.5,8.299-18.5,18.5s8.299,18.5,18.5,18.5h202.566c10.201,0,18.5-8.299,18.5-18.5s-8.299-18.5-18.5-18.5h-54.283     v-45.32h139.498c11.047,0,20-8.954,20-20v-234C412.996,37.292,404.043,28.338,392.996,28.338z M382.996,272.338H30v-214h352.996     V272.338z" fill="#ffffff"/><path d="M94.591,176.637l63.084,29.336c1.631,0.755,3.367,1.138,5.162,1.138c2.338,0,4.616-0.664,6.597-1.924     c3.548-2.267,5.666-6.13,5.666-10.335v-0.322c0-4.751-2.785-9.115-7.096-11.119l-39.455-18.33l39.456-18.334     c4.31-2.004,7.095-6.369,7.095-11.118v-0.319c0-4.211-2.119-8.074-5.665-10.334c-1.962-1.254-4.247-1.916-6.606-1.916     c-1.778,0-3.563,0.391-5.16,1.133L94.59,153.525c-4.308,2.005-7.091,6.369-7.091,11.117v0.878     C87.498,170.262,90.28,174.625,94.591,176.637z" fill="#ffffff"/><path d="M175.662,236.389c2.301,3.149,6.002,5.029,9.901,5.029h0.315c5.352,0,10.042-3.426,11.672-8.516l41.557-128.76     c1.192-3.717,0.53-7.818-1.771-10.974c-2.301-3.149-6.002-5.03-9.901-5.03h-0.314c-5.354,0-10.048,3.426-11.679,8.516     L173.88,225.425C172.698,229.145,173.364,233.242,175.662,236.389z" fill="#ffffff"/><path d="M237.896,135.628c0,4.746,2.782,9.11,7.095,11.122l39.455,18.33l-39.455,18.33c-4.311,2.004-7.096,6.368-7.096,11.119     v0.322c0,4.205,2.117,8.068,5.669,10.336c1.974,1.258,4.254,1.923,6.595,1.923c1.792,0,3.527-0.383,5.169-1.142l63.081-29.335     c4.307-2.009,7.089-6.372,7.089-11.115v-0.878c0-4.748-2.783-9.112-7.093-11.117l-63.08-29.334     c-1.591-0.739-3.373-1.131-5.152-1.131c-2.358,0-4.644,0.662-6.604,1.912c-3.554,2.264-5.673,6.127-5.673,10.338V135.628     L237.896,135.628z" fill="#ffffff"/></g><g transform="matrix(0.12244898080825806 0 0 0.12244898080825806 232 22)" id="L1_3"><path d="M413,304c-10,0-19.333,2-28,6c-9.333,4-18.667,6-28,6s-18.667-2-28-6s-18.833-6-28.5-6     s-19.167,2-28.5,6s-18.667,6-28,6c-9.334,0-18.667-2-28-6c-8.667-4-18-6-28-6s-19.667,2-29,6c-8.667,4-17.833,6-27.5,6     s-18.833-2-27.5-6c-9.333-4-19-6-29-6c-9.333,0-18.667,2-28,6s-18.333,6-27,6v44c8.667,0,17.667-2.333,27-7     c9.333-4,18.833-6,28.5-6s19.167,2,28.5,6c6.667,3.333,14.333,5.333,23,6l-35,36c-12.667-8.667-24.333-7.333-35,4l-39,41     c-6,5.333-9,12.167-9,20.5s2.833,15.333,8.5,21s12.333,8.5,20,8.5s14.5-3,20.5-9l39-41c10-10,11.667-21.333,5-34l48-49     c5.333-2,8.333-3.333,9-4c9.333-4,19-6,29-6s19.333,2,28,6c9.333,4.667,18.667,7,28,7c9.334,0,18.668-2.333,28-7     c9.333-4,19-6,29-6s19.333,2,28,6c9.335,4.667,18.668,7,28,7c9.335,0,18.668-2.333,28-7c9.333-4,18.833-6,28.5-6s19.167,2,28.5,6     c9.335,4.667,18.668,7,28,7v-44c-9.333,0-18.667-2-28-6S423,304,413,304z" fill="#ffffff"/><path d="M460,234H265l61-60l7,3c4.667,2,9.5,1.833,14.5-0.5s8.167-5.833,9.5-10.5     c2.667-7.333,1.333-14-4-20l47-48c12,6.667,23,5,33-5l39-41c6-6,9-13,9-21s-2.833-14.833-8.5-20.5S460,2,452,2     s-14.667,2.667-20,8l-39,41c-10.667,11.333-12,23.667-4,37l-49,51l-98-38l-8-4c-11.333-3.322-21.833-2.155-31.5,3.5     c-9.667,5.668-16.167,13.835-19.5,24.5l-30,105v3v1H20v55c6.667,0,13.667-1.667,21-5c10.667-5.333,22-8,34-8s23.667,2.667,35,8     c6.667,3.333,13.833,5,21.5,5s14.834-1.667,21.5-5c11.333-5.333,23-8,35-8s23.667,2.667,35,8c6.667,3.333,13.667,5,21,5     c7.335,0,14.669-1.667,22-5c10.667-5.333,22.167-8,34.5-8s23.833,2.667,34.5,8c7.335,3.333,14.668,5,22,5     c7.335,0,14.668-1.667,22-5c10.667-5.333,22-8,34-8c8,0,14.333-1.667,19-5c8-3.333,18.667-9.333,32-18c4-2,7-4.5,9-7.5     s2-5.667,0-8S466.667,234,460,234z M236,234l25-84l50,19l-63,65H236z" fill="#ffffff"/><path d="M249,49h-1l-5,10c-3.333,7.333-9.333,11-18,11h-13c8,11.333,19.333,17,34,17c10.667,0,20-4,28-12     c7.496-7.496,11.479-16.163,11.952-26H250H249z" fill="#ffffff"/><path d="M198,60h27c4,0,7-2.333,9-7l5-9c1.333-3.333,5-5,11-5h39c-2.667-10.667-8.167-19.833-16.5-27.5     S254.667,0,244,0c-13.333,0-24.5,4.667-33.5,14S197,34.667,197,48C197,56,197.333,60,198,60z" fill="#ffffff"/></g><path d="M201.572,15.411L187.627,1.464c-1.823-1.823-4.732-1.96-6.72-0.32L157.931,20.12c-1.086,0.898-1.743,2.211-1.81,3.618  c-0.067,1.407,0.462,2.776,1.459,3.773l0.964,0.964l-55.744,55.744l-6.689-6.689c-3.932-3.933-9.165-6.099-14.734-6.099  c-5.109,0-9.989,1.88-13.743,5.295c-0.438,0.398-0.868,0.809-1.293,1.233c-2.641,2.642-4.866,5.646-6.614,8.929  c-2.271,4.268-6.495,6.979-11.297,7.253c-13.375,0.765-25.691,6.459-34.68,16.035c-19.356,20.622-17.987,54.623,3.052,75.794  c10.829,10.898,25.614,17.148,40.565,17.148c0.002,0,0.002,0,0.003,0c13.992,0,27.013-5.314,36.662-14.962  c8.861-8.861,14.141-20.784,14.867-33.57c0.274-4.845,2.852-8.989,6.894-11.087c3.856-1.999,7.317-4.638,10.288-7.842  c0.005-0.006,0.122-0.132,0.127-0.139c7.485-8.154,7.177-20.714-0.702-28.593l-6.687-6.687l55.744-55.744l0.962,0.962  c0.94,0.941,2.212,1.465,3.535,1.465c0.079,0,0.159-0.002,0.238-0.006c1.407-0.066,2.72-0.724,3.617-1.811l18.976-22.976  C203.533,20.142,203.395,17.233,201.572,15.411z M91.436,127.605c0,4.275-1.664,8.294-4.688,11.317  c-3.023,3.022-7.042,4.688-11.317,4.688c-4.275,0-8.294-1.665-11.317-4.688c-3.023-3.023-4.688-7.041-4.688-11.316  c0-4.274,1.665-8.294,4.688-11.316c3.023-3.023,7.042-4.688,11.317-4.688c4.275,0,8.294,1.664,11.317,4.687  C89.771,119.311,91.436,123.331,91.436,127.605z M62.985,176.992c-0.977,0.977-2.256,1.465-3.536,1.465  c-1.28,0-2.559-0.488-3.536-1.465l-29.869-29.869c-1.953-1.952-1.953-5.118,0-7.07c1.953-1.953,5.118-1.953,7.071,0l29.869,29.869  C64.937,171.874,64.937,175.04,62.985,176.992z" transform="matrix(0.29539480805397034 0 0 0.29539480805397034 233 101)" id="L1_10" fill="#ffffff"/><path d="M377.6,125.398c8.051-7.326,18.943-9.081,27.078-4.883l1.56-1.553c4.904-12.028,13.757-25.333,26.031-37.604    c12.283-12.276,25.584-21.135,37.606-26.042c0,0,2.368-2.369,5.298-5.298c2.925-2.93,1.154-9.438-3.96-14.547L441.142,5.396    c-5.105-5.109-11.594-6.906-14.482-4.015l-5.238,5.236c-4.889,12.062-13.773,25.441-26.116,37.784    c-12.331,12.331-25.708,21.219-37.782,26.115l-1.082,1.078c5.178,8.233,3.574,19.979-4.168,28.487l-80.781,80.303    c-3.494-0.226-9.117-3.047-16.635-14.697C241.416,144.86,210.046,133,184.21,177.817c-25.836,44.817-4.408,52.227-77.991,60.774    l0.016,0.024c-25.982,1.429-50.592,11.36-69.375,30.136C-7.68,313.295-2.604,390.594,48.2,441.408    c50.806,50.806,128.113,55.879,172.654,11.328c0.797-0.797,1.557-1.639,2.324-2.46l0.014,0.032c0,0,0.293-0.316,0.775-0.866    c3.573-3.903,6.777-8.026,9.636-12.343c11.461-16.27,27.822-45.524,24.159-76.081c-5.538-46.129,37.694-44.021,55.619-55.623    c17.921-11.598,24.249-21.607,24.77-33.218c0,0-21.352,15.028-40.855-4.476c-15.677-15.678-8.708-42.391-1.947-56.529    L377.6,125.398z" transform="matrix(0.12419917434453964 0 0 0.12419917434453964 237.00001525878906 186)" id="L1_11" fill="#ffffff"/></defs><g fi:class="KUsePattern"><pattern id="pattern_L1_0" width="350" height="350" patternUnits="userSpaceOnUse"><use xlink:href="#L1_0" x="-350" y="-350"/><use xlink:href="#L1_0" x="0" y="-350"/><use xlink:href="#L1_0" x="350" y="-350"/><use xlink:href="#L1_0" x="-350" y="0"/><use xlink:href="#L1_0" x="0" y="0"/><use xlink:href="#L1_0" x="350" y="0"/><use xlink:href="#L1_0" x="-350" y="350"/><use xlink:href="#L1_0" x="0" y="350"/><use xlink:href="#L1_0" x="350" y="350"/></pattern><rect x="0" y="0" width="100%" height="100%" fill="url(#pattern_L1_0)"/></g><g fi:class="KUsePattern"><pattern id="pattern_L1_1" width="350" height="350" patternUnits="userSpaceOnUse"><use xlink:href="#L1_1" x="-350" y="-350"/><use xlink:href="#L1_1" x="0" y="-350"/><use xlink:href="#L1_1" x="350" y="-350"/><use xlink:href="#L1_1" x="-350" y="0"/><use xlink:href="#L1_1" x="0" y="0"/><use xlink:href="#L1_1" x="350" y="0"/><use xlink:href="#L1_1" x="-350" y="350"/><use xlink:href="#L1_1" x="0" y="350"/><use xlink:href="#L1_1" x="350" y="350"/></pattern><rect x="0" y="0" width="100%" height="100%" fill="url(#pattern_L1_1)"/></g><g fi:class="KUsePattern"><pattern id="pattern_L1_2" width="350" height="350" patternUnits="userSpaceOnUse"><use xlink:href="#L1_2" x="-350" y="-350"/><use xlink:href="#L1_2" x="0" y="-350"/><use xlink:href="#L1_2" x="350" y="-350"/><use xlink:href="#L1_2" x="-350" y="0"/><use xlink:href="#L1_2" x="0" y="0"/><use xlink:href="#L1_2" x="350" y="0"/><use xlink:href="#L1_2" x="-350" y="350"/><use xlink:href="#L1_2" x="0" y="350"/><use xlink:href="#L1_2" x="350" y="350"/></pattern><rect x="0" y="0" width="100%" height="100%" fill="url(#pattern_L1_2)"/></g><g fi:class="KUsePattern"><pattern id="pattern_L1_3" width="350" height="350" patternUnits="userSpaceOnUse"><use xlink:href="#L1_3" x="-350" y="-350"/><use xlink:href="#L1_3" x="0" y="-350"/><use xlink:href="#L1_3" x="350" y="-350"/><use xlink:href="#L1_3" x="-350" y="0"/><use xlink:href="#L1_3" x="0" y="0"/><use xlink:href="#L1_3" x="350" y="0"/><use xlink:href="#L1_3" x="-350" y="350"/><use xlink:href="#L1_3" x="0" y="350"/><use xlink:href="#L1_3" x="350" y="350"/></pattern><rect x="0" y="0" width="100%" height="100%" fill="url(#pattern_L1_3)"/></g><g fi:class="KUsePattern"><pattern id="pattern_L1_10" width="350" height="350" patternUnits="userSpaceOnUse"><use xlink:href="#L1_10" x="-350" y="-350"/><use xlink:href="#L1_10" x="0" y="-350"/><use xlink:href="#L1_10" x="350" y="-350"/><use xlink:href="#L1_10" x="-350" y="0"/><use xlink:href="#L1_10" x="0" y="0"/><use xlink:href="#L1_10" x="350" y="0"/><use xlink:href="#L1_10" x="-350" y="350"/><use xlink:href="#L1_10" x="0" y="350"/><use xlink:href="#L1_10" x="350" y="350"/></pattern><rect x="0" y="0" width="100%" height="100%" fill="url(#pattern_L1_10)"/></g><g fi:class="KUsePattern"><pattern id="pattern_L1_11" width="350" height="350" patternUnits="userSpaceOnUse"><use xlink:href="#L1_11" x="-350" y="-350"/><use xlink:href="#L1_11" x="0" y="-350"/><use xlink:href="#L1_11" x="350" y="-350"/><use xlink:href="#L1_11" x="-350" y="0"/><use xlink:href="#L1_11" x="0" y="0"/><use xlink:href="#L1_11" x="350" y="0"/><use xlink:href="#L1_11" x="-350" y="350"/><use xlink:href="#L1_11" x="0" y="350"/><use xlink:href="#L1_11" x="350" y="350"/></pattern><rect x="0" y="0" width="100%" height="100%" fill="url(#pattern_L1_11)"/></g></svg>